<?xml version="1.0" encoding="utf-8"?>
<!-- Generator: Adobe Illustrator 16.0.0, SVG Export Plug-In . SVG Version: 6.00 Build 0)  -->
<!DOCTYPE svg PUBLIC "-//W3C//DTD SVG 1.1//EN" "http://www.w3.org/Graphics/SVG/1.1/DTD/svg11.dtd">
<svg version="1.1" id="Layer_2" xmlns="http://www.w3.org/2000/svg" xmlns:xlink="http://www.w3.org/1999/xlink" x="0px" y="0px"
	 width="1400px" height="980px" viewBox="0 0 1400 980" enable-background="new 0 0 1400 980" xml:space="preserve">
<rect fill="#FFFFFF" width="1400" height="980"/>
<g>
	<g>
	</g>
</g>
<g>
	<g>
	</g>
</g>
<g id="Airport">
</g>
<g>
	<path fill="#E6E6E6" d="M535,196.8c2.8,3.3,20.9,1.9,31.8-1.5c7.5-4.5,26.2-16,31.4-20c-3.2,2.5-17.1,13.4-28.9,21.2
		c-2.9,3.4-5.7,7.7-2.9,9.9c4.3,3.3,18.6-2,27.8-6.9c4.4-3.6,11.8-9.9,14.6-13.8c0,0-5.4,7.7-13.4,15c-2.8,4-6.6,10.5-3.9,12.9
		c3.4,3,14.1-0.6,20.6-5c2.4-2.8,6.4-7.7,8.2-11.4c0,0-2.2,7.1-6.6,12.7c-0.7,2.6-0.8,5.7,2.3,7.1c4.9,2.2,10.4-0.8,15.3-5.7
		c1.5-2.2,3.6-5.4,5.1-8.2c0,0-2.1,5.6-4.3,9.8c-0.3,1.9-0.1,4,1.9,4.8c2.7,1.2,12.4-2.1,18.4-12.7l-0.6-37.9
		c-1.7-0.1-5.3-0.2-5.8-0.3c-4.2-0.5-6.5-0.5-9-4.1c-2.4-3.5-3.3-8.4-3.6-12.6c0-0.3,0-0.6-0.1-1.1c-0.5-7-1.5-23.3-18.8-24.8
		c-1.3-0.1-2.7-0.2-4-0.2c-3.2,0-6.4,0.3-9.5,1c-4.9,1-9.6,2.9-14.2,5.2c-4.9,2.4-9.7,5-14.6,7.3c-2.2,1-4.3,2.1-6.6,3
		c-3.8,1.6-7,2.9-7,2.9c0,0,3.2-1.4,7-3.2c2.3-1,4.5-2.2,6.7-3.3c1.4-0.7,2.9-1.4,4.3-2.1c0.5-0.3,1.1-0.5,1.6-0.8
		c9-4.6,17.4-10,27.7-11.1c1.5-0.2,2.9-0.2,4.4-0.2c1.3,0,2.7,0.1,4.1,0.2c18.4,1.6,19.6,19.3,20.1,26c0,0.4,0,0.7,0.1,1.1
		c0.4,5.6,2,10.3,4.5,13c0.6,0.7,1.3,1.4,3.4,1.9c0.6,0.1,1.3,0.3,1.9,0.3c2.1,0.3,4.3,0.4,6.4,0.4c0.1,0,0.5,0,0.8,0l-0.1-3.8
		c-4.2-0.1-8.8-0.5-10.1-1.6c-2.5-2.2-4.3-7-4.7-12.8c-0.5-5.8-0.7-26.5-21.4-28.3c-20.7-1.8-32.6,9.9-50.8,19.1
		c-18.2,9.2-56.4,27.7-79.8,32.6c-18.7,4,11.4,4.5,27.3,3.6c9.9-4.6,69.8-32.3,81-36.8c0,0-52.9,26.7-80.3,40.6
		c-3.6,2.5-6.8,5.3-5.5,6.5c2,1.8,18.6,3,32,1.4c8.5-3.6,39.9-17.1,56.3-26.2c0,0-32.8,19.2-52.1,27.3
		C538.6,190.4,533,194.4,535,196.8z"/>
	<path fill="#E6E6E6" d="M667.5,165.9c0.5,0,1.1,0,1.2,0c2.1,0,4.3-0.1,6.4-0.4c0.7-0.1,1.3-0.2,1.9-0.3c2.2-0.5,2.8-1.2,3.4-1.9
		c2.4-2.7,4-7.4,4.5-13c0-0.3,0-0.7,0.1-1.1c0.4-6.7,1.6-24.4,20.1-26c1.4-0.1,2.7-0.2,4.1-0.2c1.5,0,2.9,0.1,4.4,0.2
		c10.3,1.1,18.7,6.5,27.7,11.1c0.5,0.3,1.1,0.5,1.6,0.8c1.4,0.7,2.9,1.4,4.3,2.1c2.2,1.1,4.5,2.3,6.7,3.3c3.8,1.7,7,3.2,7,3.2
		c0,0-3.2-1.2-7-2.9c-2.2-0.9-4.4-2-6.6-3c-4.9-2.3-9.7-4.9-14.6-7.3c-4.5-2.2-9.2-4.1-14.2-5.2c-3.1-0.7-6.3-1-9.5-1
		c-1.3,0-2.6,0.1-4,0.2c-17.3,1.5-18.4,17.8-18.8,24.8c0,0.4-0.1,0.8-0.1,1.1c-0.3,4.2-1.2,9.1-3.7,12.6c-2.5,3.6-4.9,3.6-9,4.1
		c-0.5,0.1-4.5,0.3-6.1,0.3l-0.8,36.8c6,11.4,16.1,15,19,13.7c2-0.9,2.2-2.9,1.9-4.8c-2.1-4.3-4.3-9.8-4.3-9.8
		c1.5,2.8,3.6,6,5.1,8.2c4.9,4.9,10.3,7.9,15.3,5.7c3.1-1.3,3-4.5,2.3-7.1c-4.4-5.6-6.6-12.7-6.6-12.7c1.9,3.8,5.8,8.6,8.2,11.4
		c6.5,4.4,17.2,8,20.6,5c2.7-2.4-1.1-8.9-3.9-12.9c-8-7.3-13.4-15-13.4-15c2.9,3.9,10.3,10.2,14.6,13.8c9.1,4.9,23.5,10.2,27.8,6.9
		c2.8-2.2,0-6.5-2.9-9.9c-11.8-7.8-25.7-18.7-28.9-21.2c5.2,4,23.9,15.4,31.4,20c10.9,3.3,29,4.8,31.8,1.5c2-2.4-3.5-6.3-8.8-9.3
		c-19.2-8.1-52.1-27.3-52.1-27.3c16.4,9,47.8,22.5,56.3,26.2c13.4,1.6,30,0.4,32-1.4c1.3-1.2-1.9-4-5.5-6.5
		c-27.4-14-80.3-40.6-80.3-40.6c11.3,4.5,71.1,32.2,81,36.8c15.9,0.9,46,0.4,27.3-3.6c-23.4-4.9-61.6-23.4-79.8-32.6
		c-18.2-9.2-30.1-20.9-50.8-19.1c-20.7,1.8-20.9,22.5-21.4,28.3c-0.4,5.8-2.2,10.6-4.7,12.8c-1.3,1.2-6.1,1.5-10.4,1.6L667.5,165.9z
		"/>
	<circle fill="#E6E6E6" cx="659.8" cy="135.8" r="10.8"/>
	<path fill="#E6E6E6" d="M661.7,355.2L661.7,355.2c0.2,0.2,0.5,0.5,0.7,0.7c1.1,1,2.1,2.1,3.2,3.2c1.2-1,2.2-1.9,3.1-2.6
		c5-4.2,13.8-13.7,14.5-21.2c0.7-7.5-6.8-15.7-14.2-21.4c-0.1-0.1-0.2-0.1-0.2-0.2c-0.9,0.6-1.8,1.1-2.7,1.7
		c-1.9,1.2-3.7,2.4-5.3,3.5c0,0,0,0,0,0c0.6,0.4,1.2,0.8,1.8,1.3c7.3,5.3,11.2,9.5,11.4,15c0.2,4.4-5.5,10.8-12.2,17.5
		c-0.4,0.4-0.9,0.9-1.3,1.3c0,0,0,0,0,0c0.4,0.4,0.8,0.8,1.1,1.1C661.7,355.1,661.7,355.1,661.7,355.2z"/>
	<path fill="#E6E6E6" d="M662.4,320.1c-0.6-0.4-1.1-0.8-1.8-1.3c-1.8,1.2-3.5,2.4-4.9,3.5l0.4,27.4c1.4,1.4,2.8,2.8,4.2,4.2
		c0.4-0.4,0.9-0.9,1.3-1.3L662.4,320.1z"/>
	<path fill="#E6E6E6" d="M657.9,366.2C657.9,366.2,657.9,366.2,657.9,366.2c-0.3-0.3-0.5-0.5-0.7-0.7c-0.2-0.2-0.4-0.4-0.6-0.6
		c0,0,0,0-0.1-0.1v0c-1.2-1.2-2.5-2.3-3.7-3.4c-1.6,1.6-3.2,3.2-4.6,4.8c-9.8,10.7-7.1,16-5.1,21.1c1.6,4,7.6,9.3,12.6,14.6
		c0.4-0.7,0.9-1.4,1.4-2.1c0,0,0,0,0-0.1c0.3-0.4,0.6-0.9,0.9-1.3c0,0,0,0,0-0.1c0.9-1.2,1.8-2.4,2.7-3.5l0.6-25.4
		C660.2,368.6,659.1,367.4,657.9,366.2C657.9,366.3,657.9,366.2,657.9,366.2L657.9,366.2z M655.1,394.8c-1.1-1.4-2.3-2.8-3.3-4.2
		c-5.8-7.9-3.3-11.1-2.1-14.7c0.5-1.6,3.4-4.8,6.8-8.2l0.5,29.5C656.3,396.4,655.7,395.6,655.1,394.8z"/>
	<path fill="#E6E6E6" d="M655.1,275.1c-1.4-0.5-2.9-1.1-4.5-1.6c-2.3-0.8-4.8-1.7-7.3-2.7c-1.3,0.7-2.6,1.4-3.8,2.1
		c-7.2,4.1-15.3,11.1-11.6,20.3c2.9,7.2,10.3,11.1,16.5,15c1.7,1.1,3.5,2.2,5.2,3.2c1.9-1.4,4-2.9,6.3-4.5c0.6-0.4,1.2-0.9,1.8-1.3
		c0,0,0,0,0,0c1.3-0.9,2.5-1.8,3.8-2.7c0.5-0.3,1-0.7,1.5-1l0.5-23.5c-1.9-0.8-4.2-1.7-6.8-2.6c0,0,0,0,0,0
		C656.1,275.5,655.6,275.3,655.1,275.1z M642.1,294.5c-7.8-5.8,2.3-12.8,7.9-15.8c1.2-0.7,3-1.4,5-2.3l0.4,27.7
		C650.7,300.7,645.9,297.4,642.1,294.5z"/>
	<path fill="#E6E6E6" d="M663,423.9c0.3-0.3,0.5-0.7,0.7-1c2-3.7,2.6-7.2,1.5-11.2c-0.5-1.8-1.2-3.6-2.1-5.2
		c-0.2-0.5-0.5-0.9-0.8-1.4c-0.6,0.7-1.2,1.4-1.8,2.2v0c-0.1,0.1-0.1,0.2-0.2,0.3c0,0,0,0,0,0c0,0-0.1,0.1-0.1,0.1
		c-1.2,1.6-2.2,3.2-2.9,4.7l0.4,25.2l1.1,3.5l1.1-3.5l0.7-29.7c1.5,2.1,2.8,4.4,3.3,7c0.6,3.2-0.5,6.7-1.7,9.7
		C662.4,424.4,662.8,424.1,663,423.9z"/>
	<path fill="#E6E6E6" d="M703.9,243.3c-0.8-7.3-6-12.5-7.4-13.4c-1.4-0.9-0.5-2.1-2.7-4.6c-2.2-2.5-8-5.2-15.2-5.1
		c-7.3,0.1-9.4,6.6-8.6,7c0.7,0.3,0.8,1,0.8,1c-1.8-0.3-1.3,1.9,2.3,4.6c3.6,2.7,10.1,5.8,12,5.3c1.4-0.4,2.8,0.3,3.7,1.5
		c0.4,0.5,0.7,1.1,0.8,1.7c0.1,0.5,0.1,1.1,0,1.6c-0.4,2.6-2.9,4.4-4.7,5.7c-2.6,1.9-5.5,3.5-8.1,5.4c-2.8,2-7.4,4.2-12.8,6.8
		l2.6-113h1.9c1,0,1.8-1.1,1.8-2.4c0-0.9-0.4-1.6-0.9-2c-0.9,1.1-1.9,2-3.1,2.7c-0.2,0.1-0.4,0.2-0.5,0.3c-0.2,0.1-0.4,0.2-0.6,0.3
		c-0.2,0.1-0.4,0.2-0.5,0.2c-0.2,0.1-0.4,0.2-0.6,0.2c-0.2,0.1-0.4,0.1-0.6,0.2c-0.2,0.1-0.4,0.1-0.7,0.2c-0.2,0.1-0.4,0.1-0.6,0.1
		c-0.2,0-0.4,0.1-0.6,0.1h0c-0.5,0.1-1.1,0.1-1.6,0.1c-0.5,0-1.1,0-1.6-0.1h0c-0.2,0-0.4-0.1-0.6-0.1c-0.2,0-0.4-0.1-0.6-0.1
		c-0.2-0.1-0.4-0.1-0.6-0.2c-0.2-0.1-0.4-0.1-0.6-0.2c-0.2-0.1-0.4-0.2-0.6-0.2c-0.2-0.1-0.4-0.2-0.5-0.2c-0.2-0.1-0.4-0.2-0.6-0.3
		c-0.2-0.1-0.4-0.2-0.5-0.3c-1.2-0.7-2.2-1.6-3.1-2.7c-0.5,0.4-0.9,1.2-0.9,2c0,1.3,0.8,2.4,1.8,2.4h1.8l1.8,111.2
		c1.4,0.7,2.9,1.4,4.4,2.1c0.7,0.3,1.4,0.7,2.2,1c4.5,2.1,9.2,4.3,13.8,6.7c3-1.1,6.1-2.3,9-3.5
		C696.8,260.2,704.7,250.6,703.9,243.3z M678.9,226c-1.2,0-2.1-0.5-2.1-1.1s0.9-1.1,2.1-1.1s2.1,0.5,2.1,1.1S680,226,678.9,226z"/>
	<path fill="#E6E6E6" d="M691.5,287.5c-0.3-6.9-7.2-11.5-12.6-14.6c-13.1-7.5-30.5-14.1-37.2-18.8c-2.7-1.9-5.5-3.5-8.1-5.4
		c-1.8-1.3-4.3-3.1-4.7-5.7c-0.1-0.5-0.1-1.1,0-1.6c0.1-0.6,0.4-1.2,0.8-1.7c0.9-1.2,2.3-1.9,3.7-1.5c1.9,0.6,8.4-2.6,12-5.3
		c3.6-2.7,4.1-4.9,2.3-4.6c0,0,0.1-0.7,0.8-1s-1.4-6.9-8.6-7c-7.3-0.1-13,2.6-15.2,5.1c-2.2,2.5-1.3,3.7-2.7,4.6
		c-1.4,0.9-6.6,6.1-7.4,13.4s7.1,16.9,19.7,22c12.7,5.2,28.6,10.2,34.2,13.3c5.6,3,15.6,10,7.9,15.8c-7.8,5.8-19.4,13.7-26.9,19.3
		c-7.5,5.6-14.9,13.8-14.2,21.4s9.6,17.1,14.5,21.2c5,4.2,17.8,15.8,19,19.4s3.7,6.9-2.1,14.7c-0.4,0.5-0.8,1.1-1.2,1.6
		c-2.3,2.9-4.7,5.8-6.8,8.8c-2.4,3.5-4.5,7.2-5.8,11.3c-0.7,2.1-1.1,4.4-1.2,6.6c-0.1,1.2-0.1,2.4,0,3.6c0.2,2.2,0.8,4.6,1.8,6.6
		c0.7,1.2,1.4,2.5,1.4,2.4c0.2-0.2-1.5-5.2-1.8-7.4c-0.5-3.7,0.5-10.7,5.7-17.5c5.2-6.9,14.5-13.9,16.5-19.1
		c2-5.2,4.7-10.5-5.1-21.1c-9.8-10.7-26.1-23.8-25.8-31.2c0.3-7.4,7.6-12.7,20.7-21.2c5.3-3.5,10.9-6.6,16.2-10.3
		C686.7,299.7,691.8,294.7,691.5,287.5z M639.5,223.7c1.2,0,2.1,0.5,2.1,1.1s-0.9,1.1-2.1,1.1c-1.2,0-2.1-0.5-2.1-1.1
		S638.3,223.7,639.5,223.7z"/>
	<g>
		<path fill="#29A9E0" d="M588.3,165.4c0.3-0.2,0.5-0.4,0.7-0.6C589,164.8,588.8,165,588.3,165.4z"/>
		<path fill="#29A9E0" d="M711.4,165.5c-0.4-0.4-0.7-0.6-0.7-0.6C710.9,165.1,711.2,165.3,711.4,165.5z"/>
		<path fill="#E20707" d="M606.2,207c4.9,2.2,10.4-0.8,15.3-5.7c1.5-2.2,3.6-5.4,5.1-8.2c0,0-2.1,5.6-4.3,9.8
			c-0.3,1.9-0.1,4,1.9,4.8c2.7,1.2,12.4-2.1,18.4-12.7l-0.6-37.9c-1.7-0.1-5.3-0.2-5.8-0.3c-4.2-0.5-6.5-0.5-9-4.1
			c-2.4-3.5-3.3-8.4-3.6-12.6c0-0.3,0-0.6-0.1-1.1c-0.5-7-1.5-23.3-18.8-24.8c-1.3-0.1-2.7-0.2-4-0.2c-3.2,0-6.4,0.3-9.5,1
			c-4.9,1-9.6,2.9-14.2,5.2c-4.9,2.4-9.7,5-14.6,7.3c-2.2,1-4.3,2.1-6.6,3c-3.8,1.6-7,2.9-7,2.9c0,0,3.2-1.4,7-3.2
			c2.3-1,4.5-2.2,6.7-3.3c1.4-0.7,2.9-1.4,4.3-2.1c0.5-0.3,1.1-0.5,1.6-0.8c9-4.6,17.4-10,27.7-11.1c1.5-0.2,2.9-0.2,4.4-0.2
			c1.3,0,2.7,0.1,4.1,0.2c18.4,1.6,19.6,19.3,20.1,26c0,0.4,0,0.7,0.1,1.1c0.4,5.6,2,10.3,4.5,13c0.6,0.7,1.3,1.4,3.4,1.9
			c0.6,0.1,1.3,0.3,1.9,0.3c2.1,0.3,4.3,0.4,6.4,0.4c0.1,0,0.5,0,0.8,0l-0.1-3.8c-4.2-0.1-8.8-0.5-10.1-1.6c-2.5-2.2-4.3-7-4.7-12.8
			c-0.5-5.8-0.7-26.5-21.4-28.3c-20.7-1.8-32.6,9.9-50.8,19.1c-18.2,9.2-56.4,27.7-79.8,32.6c-18.7,4,11.4,4.5,27.3,3.6
			c9.9-4.6,69.8-32.3,81-36.8c0,0-52.9,26.7-80.3,40.6c-3.6,2.5-6.8,5.3-5.5,6.5c2,1.8,18.6,3,32,1.4c8.5-3.6,39.9-17.1,56.3-26.2
			c0,0-32.8,19.2-52.1,27.3c-5.2,3-10.8,6.9-8.8,9.3c2.8,3.3,20.9,1.9,31.8-1.5c7.5-4.5,26.2-16,31.4-20c0.4-0.4,0.7-0.6,0.7-0.6
			c-0.2,0.2-0.4,0.3-0.7,0.6c-3.2,2.5-17.1,13.4-28.9,21.2c-2.9,3.4-5.7,7.7-2.9,9.9c4.3,3.3,18.6-2,27.8-6.9
			c4.4-3.6,11.8-9.9,14.6-13.8c0,0-5.4,7.7-13.4,15c-2.8,4-6.6,10.5-3.9,12.9c3.4,3,14.1-0.6,20.6-5c2.4-2.8,6.4-7.7,8.2-11.4
			c0,0-2.2,7.1-6.6,12.7C603.2,202.5,603.1,205.6,606.2,207z"/>
		<path fill="#E20707" d="M824.6,161.1c-23.4-4.9-61.6-23.4-79.8-32.6c-18.2-9.2-30.1-20.9-50.8-19.1c-20.7,1.8-20.9,22.5-21.4,28.3
			c-0.4,5.8-2.2,10.6-4.7,12.8c-1.3,1.2-6.1,1.5-10.4,1.6l-0.1,3.8c0.5,0,1.1,0,1.2,0c2.1,0,4.3-0.1,6.4-0.4
			c0.7-0.1,1.3-0.2,1.9-0.3c2.2-0.5,2.8-1.2,3.4-1.9c2.4-2.7,4-7.4,4.5-13c0-0.3,0-0.7,0.1-1.1c0.4-6.7,1.6-24.4,20.1-26
			c1.4-0.1,2.7-0.2,4.1-0.2c1.5,0,2.9,0.1,4.4,0.2c10.3,1.1,18.7,6.5,27.7,11.1c0.5,0.3,1.1,0.5,1.6,0.8c1.4,0.7,2.9,1.4,4.3,2.1
			c2.2,1.1,4.5,2.3,6.7,3.3c3.8,1.7,7,3.2,7,3.2c0,0-3.2-1.2-7-2.9c-2.2-0.9-4.4-2-6.6-3c-4.9-2.3-9.7-4.9-14.6-7.3
			c-4.5-2.2-9.2-4.1-14.2-5.2c-3.1-0.7-6.3-1-9.5-1c-1.3,0-2.6,0.1-4,0.2c-17.3,1.5-18.4,17.8-18.8,24.8c0,0.4-0.1,0.8-0.1,1.1
			c-0.3,4.2-1.2,9.1-3.7,12.6c-2.5,3.6-4.9,3.6-9,4.1c-0.5,0.1-4.5,0.3-6.1,0.3l-0.8,36.8c6,11.4,16.1,15,19,13.7
			c2-0.9,2.2-2.9,1.9-4.8c-2.1-4.3-4.3-9.8-4.3-9.8c1.5,2.8,3.6,6,5.1,8.2c4.9,4.9,10.3,7.9,15.3,5.7c3.1-1.3,3-4.5,2.3-7.1
			c-4.4-5.6-6.6-12.7-6.6-12.7c1.9,3.8,5.8,8.6,8.2,11.4c6.5,4.4,17.2,8,20.6,5c2.7-2.4-1.1-8.9-3.9-12.9c-8-7.3-13.4-15-13.4-15
			c2.9,3.9,10.3,10.2,14.6,13.8c9.1,4.9,23.5,10.2,27.8,6.9c2.8-2.2,0-6.5-2.9-9.9c-11.8-7.8-25.7-18.7-28.9-21.2
			c-0.3-0.2-0.5-0.4-0.7-0.6c0,0,0.2,0.2,0.7,0.6c5.2,4,23.9,15.4,31.4,20c10.9,3.3,29,4.8,31.8,1.5c2-2.4-3.5-6.3-8.8-9.3
			c-19.2-8.1-52.1-27.3-52.1-27.3c16.4,9,47.8,22.5,56.3,26.2c13.4,1.6,30,0.4,32-1.4c1.3-1.2-1.9-4-5.5-6.5
			c-27.4-14-80.3-40.6-80.3-40.6c11.3,4.5,71.1,32.2,81,36.8C813.2,165.5,843.3,165,824.6,161.1z"/>
		<path fill="#E20707" d="M648.2,137.9L648.2,137.9c-3.1-0.4-5.9-2-7.8-4.4c-0.5,0.4-0.9,1.2-0.9,2c0,1.3,0.8,2.4,1.8,2.4h1.8l0-1.9
			C644.5,136.9,646.3,137.6,648.2,137.9z"/>
		<path fill="#E20707" d="M656.5,137.9h1.9c1,0,1.8-1.1,1.8-2.4c0-0.9-0.4-1.6-0.9-2c-1.9,2.4-4.7,4-7.9,4.4h0
			c1.9-0.3,3.6-0.9,5.1-1.9L656.5,137.9z"/>
		<circle fill="#E20707" cx="649.8" cy="125.8" r="10.8"/>
		<path fill="#E20707" d="M645,266.3l0.4,27.8c0.7,0.5,1.4,1,2.1,1.5c-0.6,0.4-1.2,0.9-1.8,1.3c1.9-1.3,3.8-2.7,5.7-4
			c0.5-0.3,1-0.7,1.5-1l0.5-23.5c-2.3-1-5.2-2-8.4-3.2v0c0.5,0.2,1.1,0.4,1.6,0.6C646,265.9,645.5,266.1,645,266.3z"/>
		<path fill="#E20707" d="M646.9,387.3c0.3,0.4,0.7,0.9,1,1.3c-0.3,0.4-0.6,0.9-0.9,1.3c1.2-1.7,2.4-3.3,3.7-4.9l0.6-25.4
			c-1.1-1.1-2.3-2.3-3.5-3.4c-0.4,0.4-0.9,0.9-1.3,1.3L646.9,387.3z"/>
		<path fill="#29A9E0" d="M646.5,354.9L646.5,354.9C646.5,354.9,646.6,355,646.5,354.9C646.6,355,646.5,354.9,646.5,354.9z"/>
		<path fill="#29A9E0" d="M647.2,355.6c0.2,0.2,0.4,0.4,0.6,0.6C647.6,356,647.4,355.8,647.2,355.6z"/>
		<path fill="#29A9E0" d="M651.7,345.2L651.7,345.2c0,0-0.1-0.1-0.1-0.1C651.7,345.1,651.7,345.1,651.7,345.2z"/>
		<path fill="#E20707" d="M651.7,342.6l0.7-32.5c-0.6-0.4-1.1-0.8-1.8-1.3c-1.8,1.2-3.5,2.4-4.9,3.5l0.4,27.4
			c1.4,1.4,2.8,2.8,4.2,4.2C650.8,343.5,651.3,343,651.7,342.6z"/>
		<path fill="#E20707" d="M653.9,250.9l2.6-113l0-1.9c-1.5,1-3.3,1.7-5.1,1.9c-0.5,0.1-1.1,0.1-1.6,0.1c-0.5,0-1.1,0-1.6-0.1
			c-1.9-0.3-3.6-0.9-5.1-1.9l0,1.9l1.8,111.2c1.4,0.7,2.9,1.4,4.4,2.1c0.7,0.3,1.4,0.7,2.2,1c0,0-0.1,0-0.1,0
			C652.2,251.7,653,251.3,653.9,250.9z"/>
		<path fill="#E20707" d="M650.2,397.6c-1.2,1.6-2.2,3.2-2.9,4.7l0.4,25.2l1.1,3.5l1.1-3.5l0.7-29.7c-0.1-0.1-0.2-0.2-0.2-0.3
			C650.3,397.6,650.3,397.6,650.2,397.6z"/>
		<path fill="#29A9E0" d="M650.5,397.2c-0.1,0.1-0.1,0.2-0.2,0.3C650.4,397.4,650.5,397.3,650.5,397.2L650.5,397.2z"/>
		<path fill="#29A9E0" d="M647.1,390C647.1,390,647.1,390,647.1,390c0.3-0.5,0.7-0.9,1-1.4c-0.3-0.4-0.7-0.9-1-1.3
			c-0.6-0.8-1.3-1.7-1.9-2.5c-1.1-1.4-2.3-2.8-3.3-4.2c-5.8-7.9-3.3-11.1-2.1-14.7c0.5-1.6,3.4-4.9,6.9-8.3c0.4-0.4,0.9-0.9,1.3-1.3
			h0c0,0,0,0-0.1-0.1c-0.2-0.2-0.4-0.4-0.6-0.6c-0.2-0.2-0.4-0.4-0.6-0.6c0,0,0,0-0.1-0.1c-1.2-1.2-2.5-2.3-3.7-3.4
			c-1.6,1.6-3.2,3.2-4.6,4.8c-9.8,10.7-7.1,16-5.1,21.1c1.6,4,7.6,9.3,12.6,14.6C646.2,391.4,646.6,390.7,647.1,390z"/>
		<path fill="#29A9E0" d="M639.5,301.4c1.9-1.4,4-2.9,6.3-4.5c0.6-0.4,1.2-0.9,1.8-1.3c-0.7-0.5-1.4-1-2.1-1.5
			c-4.8-3.4-9.6-6.8-13.4-9.7c-7.8-5.8,2.3-12.8,7.9-15.8c1.2-0.7,3-1.5,5.1-2.3c0.5-0.2,1-0.4,1.5-0.6c-0.5-0.2-1-0.4-1.6-0.6
			c-1.4-0.5-2.9-1.1-4.5-1.6c-2.3-0.8-4.8-1.7-7.3-2.7c-1.3,0.7-2.6,1.4-3.8,2.1c-7.2,4.1-15.3,11.1-11.6,20.3
			c2.9,7.2,10.3,11.1,16.5,15C636.1,299.3,637.8,300.4,639.5,301.4z"/>
		<path fill="#29A9E0" d="M653.1,396.4c-0.2-0.5-0.5-0.9-0.8-1.4c-0.6,0.7-1.2,1.4-1.8,2.2c-0.1,0.1-0.2,0.2-0.2,0.3c0,0,0,0,0,0
			l0,0c0.1,0.1,0.2,0.2,0.2,0.3c1.5,2.1,2.8,4.4,3.3,7c0.6,3.2-0.5,6.7-1.7,9.7c0.2-0.1,0.6-0.5,0.8-0.7c0.3-0.3,0.5-0.7,0.7-1
			c2-3.7,2.6-7.2,1.5-11.2C654.7,399.8,654,398.1,653.1,396.4z"/>
		<path fill="#29A9E0" d="M686.5,220c-1.4-0.9-0.5-2.1-2.7-4.6c-2.2-2.5-8-5.2-15.2-5.1c-7.3,0.1-9.4,6.6-8.6,7c0.7,0.3,0.8,1,0.8,1
			c-1.8-0.3-1.3,1.9,2.3,4.6c3.6,2.7,10.1,5.8,12,5.3c1.4-0.4,2.8,0.3,3.7,1.5c0.4,0.5,0.7,1.1,0.8,1.7c0.1,0.5,0.1,1.1,0,1.6
			c-0.4,2.6-2.9,4.4-4.7,5.7c-2.6,1.9-5.5,3.5-8.1,5.4c-2.8,2-7.4,4.2-12.8,6.8c-0.8,0.4-1.7,0.8-2.6,1.2c0,0,0.1,0,0.1,0
			c4.5,2.1,9.2,4.3,13.8,6.7c3-1.1,6.1-2.3,9-3.5c12.7-5.2,20.5-14.7,19.7-22C693.1,226,687.9,220.9,686.5,220z M668.9,216
			c-1.2,0-2.1-0.5-2.1-1.1s0.9-1.1,2.1-1.1s2.1,0.5,2.1,1.1S670,216,668.9,216z"/>
		<path fill="#29A9E0" d="M659,303.8c-0.1-0.1-0.2-0.1-0.2-0.2c-0.9,0.6-1.8,1.1-2.7,1.7c-1.9,1.2-3.7,2.4-5.3,3.5c0,0,0,0,0,0
			c0.6,0.4,1.2,0.8,1.8,1.3c7.3,5.3,11.2,9.5,11.4,15c0.2,4.4-5.5,10.8-12.2,17.5c-0.4,0.4-0.9,0.9-1.3,1.3c0,0,0,0,0,0
			c0.4,0.4,0.8,0.8,1.1,1.1c0,0,0.1,0.1,0.1,0.1c0.2,0.2,0.5,0.5,0.7,0.7c1.1,1,2.1,2.1,3.2,3.2c1.2-1,2.2-1.9,3.1-2.6
			c5-4.2,13.8-13.7,14.5-21.2C673.9,317.6,666.5,309.4,659,303.8z"/>
		<path fill="#29A9E0" d="M668.9,262.9c-13.1-7.5-30.5-14.1-37.2-18.8c-2.7-1.9-5.5-3.5-8.1-5.4c-1.8-1.3-4.3-3.1-4.7-5.7
			c-0.1-0.5-0.1-1.1,0-1.6c0.1-0.6,0.4-1.2,0.8-1.7c0.9-1.2,2.3-1.9,3.7-1.5c1.9,0.6,8.4-2.6,12-5.3c3.6-2.7,4.1-4.9,2.3-4.6
			c0,0,0.1-0.7,0.8-1s-1.4-6.9-8.6-7c-7.3-0.1-13,2.6-15.2,5.1c-2.2,2.5-1.3,3.7-2.7,4.6c-1.4,0.9-6.6,6.1-7.4,13.4
			s7.1,16.9,19.7,22c12.7,5.2,28.6,10.2,34.2,13.3c5.6,3,15.6,10,7.9,15.8c-7.8,5.8-19.4,13.7-26.9,19.3
			c-7.5,5.6-14.9,13.8-14.2,21.4s9.6,17.1,14.5,21.2c5,4.2,17.8,15.8,19,19.4s3.7,6.9-2.1,14.7c-0.4,0.5-0.8,1.1-1.2,1.6
			c-2.3,2.9-4.7,5.8-6.8,8.8c-2.4,3.5-4.5,7.2-5.8,11.3c-0.7,2.1-1.1,4.4-1.2,6.6c-0.1,1.2-0.1,2.4,0,3.6c0.2,2.2,0.8,4.6,1.8,6.6
			c0.7,1.2,1.4,2.5,1.4,2.4c0.2-0.2-1.5-5.2-1.8-7.4c-0.5-3.7,0.5-10.7,5.7-17.5c5.2-6.9,14.5-13.9,16.5-19.1
			c2-5.2,4.7-10.5-5.1-21.1c-9.8-10.7-26.1-23.8-25.8-31.2c0.3-7.4,7.6-12.7,20.7-21.2c5.3-3.5,10.9-6.6,16.2-10.3
			c5.5-3.8,10.5-8.8,10.2-16C681.2,270.6,674.3,266,668.9,262.9z M629.5,213.7c1.2,0,2.1,0.5,2.1,1.1s-0.9,1.1-2.1,1.1
			c-1.2,0-2.1-0.5-2.1-1.1S628.3,213.7,629.5,213.7z"/>
	</g>
</g>
<g>
	<path fill="#E6E6E6" d="M240.1,438.1h64.7h64.7c8,0,14.5-7.5,14.5-16.7V128.9c0-9.2-6.5-16.7-14.5-16.7h-64.7h-64.7
		c-8,0-14.5,7.5-14.5,16.7v292.4C225.6,430.6,232.1,438.1,240.1,438.1z"/>
	<g>
		<g>
			<path fill="#F0F1F1" d="M230.1,102.2c-8,0-14.5,7.5-14.5,16.7v292.4c0,9.2,6.5,16.7,14.5,16.7h64.7V102.2H230.1z"/>
			<path fill="#E6E6E6" d="M359.5,102.2h-64.7v325.9h64.7c8,0,14.5-7.5,14.5-16.7V118.9C374,109.7,367.5,102.2,359.5,102.2z"/>
		</g>
		<g>
			<g>
				<path fill="#E2995A" d="M311.1,160.1c-6.5-8.4-5.9-20.5,1.8-28.2c7.7-7.7,19.8-8.3,28.2-1.8l0,0l4.1-0.2
					c-9.5-9.5-24.9-9.5-34.4,0c-9.5,9.5-9.5,24.9,0,34.4L311.1,160.1L311.1,160.1z"/>
				<path fill="#AD6D2D" d="M345.2,129.8l-0.2,4.1l0,0c6.5,8.4,5.9,20.5-1.8,28.2c-7.7,7.7-19.8,8.3-28.2,1.8l0,0l-4.1,0.2
					c9.5,9.5,24.9,9.5,34.4,0C354.7,154.7,354.7,139.3,345.2,129.8z"/>
				<path fill="#C58743" d="M312.9,131.8c-7.7,7.7-8.3,19.8-1.8,28.2l30-30C332.7,123.5,320.6,124.1,312.9,131.8z"/>
				<path fill="#C58743" d="M343.2,162.2c7.7-7.7,8.3-19.8,1.8-28.2l-30,30C323.4,170.5,335.5,169.9,343.2,162.2z"/>
				<polygon fill="#AD6D2D" points="345.2,129.8 341.1,130 341.1,130 311.1,160.1 311.1,160.1 310.8,164.2 				"/>
				<polygon fill="#E2995A" points="315,164 345,133.9 345,133.9 345.2,129.8 310.8,164.2 315,164 				"/>
			</g>
			<g>
				<path fill="#E2995A" d="M244.6,160.1c-6.5-8.4-5.9-20.5,1.8-28.2c7.7-7.7,19.8-8.3,28.2-1.8l0,0l4.1-0.2
					c-9.5-9.5-24.9-9.5-34.4,0c-9.5,9.5-9.5,24.9,0,34.4L244.6,160.1L244.6,160.1z"/>
				<path fill="#AD6D2D" d="M278.6,133.9L278.6,133.9c6.5,8.4,5.9,20.5-1.8,28.2c-7.7,7.7-19.8,8.3-28.2,1.8l0,0l-4.1,0.2
					c9.5,9.5,24.9,9.5,34.4,0c9.5-9.5,9.5-24.9,0-34.4L278.6,133.9z"/>
				<path fill="#C58743" d="M246.4,131.8c-7.7,7.7-8.3,19.8-1.8,28.2l30-30C266.3,123.5,254.1,124.1,246.4,131.8z"/>
				<path fill="#C58743" d="M276.7,162.2c7.7-7.7,8.3-19.8,1.8-28.2l-30,30C256.9,170.5,269,169.9,276.7,162.2z"/>
				<polygon fill="#AD6D2D" points="278.8,129.8 274.7,130 274.7,130 244.6,160.1 244.6,160.1 244.4,164.2 				"/>
				<polygon fill="#E2995A" points="248.5,164 278.5,133.9 278.6,133.9 278.8,129.8 244.4,164.2 248.5,164 				"/>
				<path fill="#E2995A" d="M244.6,219.1c-6.5-8.4-5.9-20.5,1.8-28.2c7.7-7.7,19.8-8.3,28.2-1.8l0,0l4.1-0.2
					c-9.5-9.5-24.9-9.5-34.4,0c-9.5,9.5-9.5,24.9,0,34.4L244.6,219.1L244.6,219.1z"/>
				<path fill="#AD6D2D" d="M278.6,193L278.6,193c6.5,8.4,5.9,20.5-1.8,28.2c-7.7,7.7-19.8,8.3-28.2,1.8l0,0l-4.1,0.2
					c9.5,9.5,24.9,9.5,34.4,0c9.5-9.5,9.5-24.9,0-34.4L278.6,193z"/>
				<path fill="#C58743" d="M246.4,190.9c-7.7,7.7-8.3,19.8-1.8,28.2l30-30C266.3,182.6,254.1,183.2,246.4,190.9z"/>
				<path fill="#C58743" d="M276.7,221.2c7.7-7.7,8.3-19.8,1.8-28.2l-30,30C256.9,229.5,269,228.9,276.7,221.2z"/>
				<polygon fill="#AD6D2D" points="278.8,188.9 274.7,189.1 274.7,189.1 244.6,219.1 244.6,219.2 244.4,223.3 				"/>
				<polygon fill="#E2995A" points="248.5,223 278.5,193 278.6,193 278.8,188.9 244.4,223.3 248.5,223 				"/>
				<path fill="#E2995A" d="M244.6,278.2c-6.5-8.4-5.9-20.5,1.8-28.2c7.7-7.7,19.8-8.3,28.2-1.8l0,0l4.1-0.2
					c-9.5-9.5-24.9-9.5-34.4,0c-9.5,9.5-9.5,24.9,0,34.4L244.6,278.2L244.6,278.2z"/>
				<path fill="#AD6D2D" d="M278.6,252L278.6,252c6.5,8.4,5.9,20.5-1.8,28.2c-7.7,7.7-19.8,8.3-28.2,1.8l0,0l-4.1,0.2
					c9.5,9.5,24.9,9.5,34.4,0c9.5-9.5,9.5-24.9,0-34.4L278.6,252z"/>
				<path fill="#C58743" d="M246.4,250c-7.7,7.7-8.3,19.8-1.8,28.2l30-30C266.3,241.7,254.1,242.3,246.4,250z"/>
				<path fill="#C58743" d="M276.7,280.3c7.7-7.7,8.3-19.8,1.8-28.2l-30,30C256.9,288.6,269,288,276.7,280.3z"/>
				<polygon fill="#AD6D2D" points="278.8,247.9 274.7,248.2 274.7,248.2 244.6,278.2 244.6,278.2 244.4,282.3 				"/>
				<polygon fill="#E2995A" points="248.5,282.1 278.5,252 278.6,252 278.8,247.9 244.4,282.3 248.5,282.1 				"/>
				<path fill="#E2995A" d="M244.6,337.3c-6.5-8.4-5.9-20.5,1.8-28.2c7.7-7.7,19.8-8.3,28.2-1.8l0,0l4.1-0.2
					c-9.5-9.5-24.9-9.5-34.4,0c-9.5,9.5-9.5,24.9,0,34.4L244.6,337.3L244.6,337.3z"/>
				<path fill="#AD6D2D" d="M278.6,311.1L278.6,311.1c6.5,8.4,5.9,20.5-1.8,28.2c-7.7,7.7-19.8,8.3-28.2,1.8l0,0l-4.1,0.2
					c9.5,9.5,24.9,9.5,34.4,0c9.5-9.5,9.5-24.9,0-34.4L278.6,311.1z"/>
				<path fill="#C58743" d="M246.4,309c-7.7,7.7-8.3,19.8-1.8,28.2l30-30C266.3,300.7,254.1,301.3,246.4,309z"/>
				<path fill="#C58743" d="M276.7,339.3c7.7-7.7,8.3-19.8,1.8-28.2l-30,30C256.9,347.6,269,347.1,276.7,339.3z"/>
				<polygon fill="#AD6D2D" points="278.8,307 274.7,307.2 274.7,307.2 244.6,337.3 244.6,337.3 244.4,341.4 				"/>
				<polygon fill="#E2995A" points="248.5,341.1 278.5,311.1 278.6,311.1 278.8,307 244.4,341.4 248.5,341.2 				"/>
				<path fill="#E2995A" d="M244.6,396.3c-6.5-8.4-5.9-20.5,1.8-28.2c7.7-7.7,19.8-8.3,28.2-1.8l0,0l4.1-0.2
					c-9.5-9.5-24.9-9.5-34.4,0c-9.5,9.5-9.5,24.9,0,34.4L244.6,396.3L244.6,396.3z"/>
				<path fill="#AD6D2D" d="M278.6,370.2L278.6,370.2c6.5,8.4,5.9,20.5-1.8,28.2c-7.7,7.7-19.8,8.3-28.2,1.8l0,0l-4.1,0.2
					c9.5,9.5,24.9,9.5,34.4,0s9.5-24.9,0-34.4L278.6,370.2z"/>
				<path fill="#C58743" d="M246.4,368.1c-7.7,7.7-8.3,19.8-1.8,28.2l30-30C266.3,359.8,254.1,360.4,246.4,368.1z"/>
				<path fill="#C58743" d="M276.7,398.4c7.7-7.7,8.3-19.8,1.8-28.2l-30,30C256.9,406.7,269,406.1,276.7,398.4z"/>
				<polygon fill="#AD6D2D" points="278.8,366.1 274.7,366.3 274.7,366.3 244.6,396.3 244.6,396.3 244.4,400.4 				"/>
				<polygon fill="#E2995A" points="248.5,400.2 278.5,370.2 278.6,370.2 278.8,366.1 244.4,400.4 248.5,400.2 				"/>
				<path fill="#E2995A" d="M311.1,219.2L311.1,219.2c-6.5-8.4-5.9-20.5,1.8-28.2c7.7-7.7,19.8-8.3,28.2-1.8l0,0l4.1-0.2
					c-9.5-9.5-24.9-9.5-34.4,0c-9.5,9.5-9.5,24.9,0,34.4L311.1,219.2z"/>
				<path fill="#AD6D2D" d="M345,193c6.5,8.4,5.9,20.5-1.8,28.2c-7.7,7.7-19.8,8.3-28.2,1.8l0,0l-4.1,0.2c9.5,9.5,24.9,9.5,34.4,0
					c9.5-9.5,9.5-24.9,0-34.4L345,193L345,193z"/>
				<path fill="#C58743" d="M312.9,190.9c-7.7,7.7-8.3,19.8-1.8,28.2l30-30C332.7,182.6,320.6,183.2,312.9,190.9z"/>
				<path fill="#C58743" d="M343.2,221.2c7.7-7.7,8.3-19.8,1.8-28.2l-30,30C323.4,229.5,335.5,228.9,343.2,221.2z"/>
				<polygon fill="#AD6D2D" points="341.1,189.1 311.1,219.1 311.1,219.2 310.8,223.3 345.2,188.9 341.1,189.1 				"/>
				<polygon fill="#E2995A" points="310.8,223.3 315,223 315,223 345,193 345,193 345.2,188.9 				"/>
				<path fill="#E2995A" d="M311.1,278.2c-6.5-8.4-5.9-20.5,1.8-28.2c7.7-7.7,19.8-8.3,28.2-1.8l0,0l4.1-0.2
					c-9.5-9.5-24.9-9.5-34.4,0c-9.5,9.5-9.5,24.9,0,34.4L311.1,278.2L311.1,278.2z"/>
				<path fill="#AD6D2D" d="M345,252L345,252c6.5,8.4,5.9,20.5-1.8,28.2c-7.7,7.7-19.8,8.3-28.2,1.8l0,0l-4.1,0.2
					c9.5,9.5,24.9,9.5,34.4,0c9.5-9.5,9.5-24.9,0-34.4L345,252z"/>
				<path fill="#C58743" d="M312.9,250c-7.7,7.7-8.3,19.8-1.8,28.2l30-30C332.7,241.7,320.6,242.3,312.9,250z"/>
				<path fill="#C58743" d="M343.2,280.3c7.7-7.7,8.3-19.8,1.8-28.2l-30,30C323.4,288.6,335.5,288,343.2,280.3z"/>
				<polygon fill="#AD6D2D" points="345.2,247.9 341.1,248.2 341.1,248.2 311.1,278.2 311.1,278.2 310.8,282.3 				"/>
				<polygon fill="#E2995A" points="315,282.1 345,252 345,252 345.2,247.9 310.8,282.3 315,282.1 				"/>
				<path fill="#E2995A" d="M311.1,337.3c-6.5-8.4-5.9-20.5,1.8-28.2c7.7-7.7,19.8-8.3,28.2-1.8l0,0l4.1-0.2
					c-9.5-9.5-24.9-9.5-34.4,0c-9.5,9.5-9.5,24.9,0,34.4L311.1,337.3L311.1,337.3z"/>
				<path fill="#AD6D2D" d="M345,311.1L345,311.1c6.5,8.4,5.9,20.5-1.8,28.2c-7.7,7.7-19.8,8.3-28.2,1.8l0,0l-4.1,0.2
					c9.5,9.5,24.9,9.5,34.4,0c9.5-9.5,9.5-24.9,0-34.4L345,311.1z"/>
				<path fill="#C58743" d="M312.9,309c-7.7,7.7-8.3,19.8-1.8,28.2l30-30C332.7,300.7,320.6,301.3,312.9,309z"/>
				<path fill="#C58743" d="M343.2,339.3c7.7-7.7,8.3-19.8,1.8-28.2l-30,30C323.4,347.6,335.5,347.1,343.2,339.3z"/>
				<polygon fill="#AD6D2D" points="345.2,307 341.1,307.2 341.1,307.2 311.1,337.3 311.1,337.3 310.8,341.4 				"/>
				<polygon fill="#E2995A" points="315,341.1 345,311.1 345,311.1 345.2,307 310.8,341.4 315,341.2 				"/>
				<path fill="#E2995A" d="M311.1,396.3c-6.5-8.4-5.9-20.5,1.8-28.2c7.7-7.7,19.8-8.3,28.2-1.8l0,0l4.1-0.2
					c-9.5-9.5-24.9-9.5-34.4,0c-9.5,9.5-9.5,24.9,0,34.4L311.1,396.3L311.1,396.3z"/>
				<path fill="#AD6D2D" d="M345,370.2L345,370.2c6.5,8.4,5.9,20.5-1.8,28.2c-7.7,7.7-19.8,8.3-28.2,1.8l0,0l-4.1,0.2
					c9.5,9.5,24.9,9.5,34.4,0c9.5-9.5,9.5-24.9,0-34.4L345,370.2z"/>
				<path fill="#C58743" d="M312.9,368.1c-7.7,7.7-8.3,19.8-1.8,28.2l30-30C332.7,359.8,320.6,360.4,312.9,368.1z"/>
				<path fill="#C58743" d="M343.2,398.4c7.7-7.7,8.3-19.8,1.8-28.2l-30,30C323.4,406.7,335.5,406.1,343.2,398.4z"/>
				<polygon fill="#AD6D2D" points="345.2,366.1 341.1,366.3 341.1,366.3 311.1,396.3 311.1,396.3 310.8,400.4 				"/>
				<polygon fill="#E2995A" points="315,400.2 345,370.2 345,370.2 345.2,366.1 310.8,400.4 315,400.2 				"/>
			</g>
		</g>
	</g>
</g>
<g>
	<circle fill="#E6E6E6" cx="395.2" cy="687.7" r="28.6"/>
	<g>
		<path fill="#53CAEA" d="M365.2,693.1c-7.6-9.9-6.9-24.1,2.1-33.2c9.1-9.1,23.3-9.8,33.2-2.1l0,0l4.8-0.3
			c-11.2-11.2-29.3-11.2-40.4,0c-11.2,11.2-11.2,29.3,0,40.4L365.2,693.1L365.2,693.1z"/>
		<path fill="#189BC9" d="M405.4,657.5l-0.3,4.8l0,0c7.6,9.9,6.9,24.1-2.1,33.2c-9.1,9.1-23.3,9.8-33.2,2.1l0,0l-4.8,0.3
			c11.2,11.2,29.3,11.2,40.4,0C416.5,686.7,416.5,668.6,405.4,657.5z"/>
		<path fill="#29A9E0" d="M367.4,659.9c-9.1,9.1-9.8,23.3-2.1,33.2l35.3-35.3C390.7,650.1,376.4,650.8,367.4,659.9z"/>
		<path fill="#29A9E0" d="M403,695.5c9.1-9.1,9.8-23.3,2.1-33.2l-35.3,35.3C379.7,705.3,393.9,704.6,403,695.5z"/>
		<polygon fill="#189BC9" points="405.4,657.5 400.6,657.8 400.5,657.8 365.2,693.1 365.2,693.1 365,697.9 		"/>
		<polygon fill="#53CAEA" points="369.8,697.6 405.1,662.3 405.1,662.3 405.4,657.5 365,697.9 369.8,697.6 		"/>
	</g>
	<g>
		<path fill="#E6E6E6" d="M322.6,733h-42.7h-42.7c-14.6,0-26.4,11.8-26.4,26.3v3.1c0,14.5,11.8,26.3,26.4,26.3h42.7h42.7
			c14.6,0,26.4-11.8,26.4-26.3v-3.1C349,744.8,337.2,733,322.6,733z"/>
		<path fill="#E6E6E6" d="M322.6,807.5h-42.7h-42.7c-14.6,0-26.4,11.8-26.4,26.3v3.1c0,14.5,11.8,26.3,26.4,26.3h42.7h42.7
			c14.6,0,26.3-11.8,26.3-26.3v-3.1C349,819.3,337.2,807.5,322.6,807.5z"/>
		<circle fill="#E6E6E6" cx="178.2" cy="878.7" r="28.6"/>
		<path fill="#E6E6E6" d="M322.6,659.8h-42.7h-42.7c-14.6,0-26.3,11.8-26.3,26.3v3.1c0,14.5,11.8,26.3,26.3,26.3h42.7h42.7
			c14.5,0,26.3-11.8,26.3-26.3v-3.1C349,671.6,337.2,659.8,322.6,659.8z"/>
		<g>
			<path fill="#29A9E0" d="M226.4,746.2c-3.6,0-6.4-2.9-6.4-6.4V739c0-3.6,2.9-6.4,6.4-6.4h43.5V723h-42.7
				c-14.6,0-26.4,11.8-26.4,26.3v3.1c0,14.5,11.8,26.3,26.4,26.3h42.7v-32.6H226.4z"/>
			<path fill="#F2F2F2" d="M312.6,723h-42.7v9.6h43.5c3.6,0,6.4,2.9,6.4,6.4v0.8c0,3.5-2.9,6.4-6.4,6.4h-43.5v32.6h42.7
				c14.6,0,26.4-11.8,26.4-26.3v-3.1C339,734.8,327.2,723,312.6,723z"/>
			<path fill="none" stroke="#E20707" stroke-width="0" stroke-linecap="round" stroke-linejoin="round" d="M339,749.3
				c0-0.9,0-1.7-0.1-2.5"/>
			<path fill="#29A9E0" d="M220,739v0.8c0,3.5,2.9,6.4,6.4,6.4h43.5v-13.6h-43.5C222.9,732.6,220,735.5,220,739z"/>
			<path fill="#2FC0FF" d="M220,739v0.8c0,3.5,2.9,6.4,6.4,6.4h43.5v-13.6h-43.5C222.9,732.6,220,735.5,220,739z"/>
			<path fill="#F0F1F1" d="M313.3,746.2c3.6,0,6.4-2.9,6.4-6.4V739c0-3.6-2.9-6.4-6.4-6.4h-43.5v13.6H313.3z"/>
			<path opacity="0.4" fill="#FFFFFF" d="M313.3,746.2c3.6,0,6.4-2.9,6.4-6.4V739c0-3.6-2.9-6.4-6.4-6.4h-43.5v13.6H313.3z"/>
		</g>
		<g>
			<path fill="#E20707" d="M226.4,820.7c-3.6,0-6.4-2.9-6.4-6.4v-0.8c0-3.6,2.9-6.4,6.4-6.4h43.5v-9.6h-42.7
				c-14.6,0-26.4,11.8-26.4,26.3v3.1c0,14.5,11.8,26.3,26.4,26.3h42.7v-32.6H226.4z"/>
			<path fill="#F0F1F1" d="M312.6,797.5h-42.7v9.6h43.5c3.6,0,6.4,2.9,6.4,6.4v0.8c0,3.6-2.9,6.4-6.4,6.4h-43.5v32.6h42.7
				c14.6,0,26.3-11.8,26.3-26.3v-3.1C339,809.3,327.2,797.5,312.6,797.5z"/>
			<path fill="none" stroke="#E20707" stroke-width="0" stroke-linecap="round" stroke-linejoin="round" d="M339,823.9
				c0-0.9,0-1.7-0.1-2.5"/>
			<path fill="#E20707" d="M220,813.5v0.8c0,3.6,2.9,6.4,6.4,6.4h43.5v-13.6h-43.5C222.9,807.1,220,810,220,813.5z"/>
			<path fill="#F70808" d="M220,813.5v0.8c0,3.6,2.9,6.4,6.4,6.4h43.5v-13.6h-43.5C222.9,807.1,220,810,220,813.5z"/>
			<path fill="#F0F1F1" d="M313.3,820.7c3.6,0,6.4-2.9,6.4-6.4v-0.8c0-3.6-2.9-6.4-6.4-6.4h-43.5v13.6H313.3z"/>
			<path opacity="0.4" fill="#FFFFFF" d="M313.3,820.7c3.6,0,6.4-2.9,6.4-6.4v-0.8c0-3.6-2.9-6.4-6.4-6.4h-43.5v13.6H313.3z"/>
		</g>
		<g>
			<path fill="#FFFFFF" d="M148.3,884.1c-7.6-9.9-6.9-24.1,2.1-33.2c9.1-9.1,23.3-9.8,33.2-2.1l0,0l4.8-0.3
				c-11.2-11.2-29.3-11.2-40.4,0c-11.2,11.2-11.2,29.3,0,40.4L148.3,884.1L148.3,884.1z"/>
			<path fill="#E6E6E7" d="M188.4,848.5l-0.3,4.8l0,0c7.6,9.9,6.9,24.1-2.1,33.2c-9.1,9.1-23.3,9.8-33.2,2.1l0,0l-4.8,0.3
				c11.2,11.2,29.3,11.2,40.4,0C199.6,877.8,199.6,859.7,188.4,848.5z"/>
			<path fill="#F0F1F1" d="M150.4,850.9c-9.1,9.1-9.8,23.3-2.1,33.2l35.3-35.3C173.7,841.2,159.5,841.8,150.4,850.9z"/>
			<path fill="#F0F1F1" d="M186,886.5c9.1-9.1,9.8-23.3,2.1-33.2l-35.3,35.3C162.7,896.3,177,895.6,186,886.5z"/>
			<polygon fill="#E6E6E7" points="188.4,848.5 183.6,848.8 183.6,848.8 148.3,884.1 148.3,884.1 148,888.9 			"/>
			<polygon fill="#FFFFFF" points="152.8,888.7 188.1,853.4 188.1,853.3 188.4,848.5 148,888.9 152.8,888.7 			"/>
		</g>
		<g>
			<path fill="#E20707" d="M226.4,673c-3.6,0-6.4-2.9-6.4-6.4v-0.8c0-3.6,2.9-6.4,6.4-6.4h43.5v-9.6h-42.7
				c-14.6,0-26.3,11.8-26.3,26.3v3.1c0,14.5,11.8,26.3,26.3,26.3h42.7V673H226.4z"/>
			<path fill="#29A9E0" d="M312.6,649.8h-42.7v9.6h43.5c3.6,0,6.4,2.9,6.4,6.4v0.8c0,3.6-2.9,6.4-6.4,6.4h-43.5v32.6h42.7
				c14.5,0,26.3-11.8,26.3-26.3v-3.1C339,661.6,327.2,649.8,312.6,649.8z"/>
			<path fill="none" stroke="#E20707" stroke-width="0" stroke-linecap="round" stroke-linejoin="round" d="M339,676.2
				c0-0.9,0-1.7-0.1-2.5"/>
			<path fill="#E20707" d="M220,665.8v0.8c0,3.6,2.9,6.4,6.4,6.4h43.5v-13.6h-43.5C222.9,659.4,220,662.3,220,665.8z"/>
			<path fill="#F70808" d="M220,665.8v0.8c0,3.6,2.9,6.4,6.4,6.4h43.5v-13.6h-43.5C222.9,659.4,220,662.3,220,665.8z"/>
			<path fill="#29A9E0" d="M313.3,673c3.6,0,6.4-2.9,6.4-6.4v-0.8c0-3.6-2.9-6.4-6.4-6.4h-43.5V673H313.3z"/>
			<path fill="#2FC0FF" d="M313.3,673c3.6,0,6.4-2.9,6.4-6.4v-0.8c0-3.6-2.9-6.4-6.4-6.4h-43.5V673H313.3z"/>
		</g>
	</g>
</g>
<g>
	<polygon fill="#E6E6E6" points="979.9,398.1 1009.9,414.3 1015.2,404.4 1002.8,397.7 1102.5,212.2 1101.3,209.7 1101.5,209.3 
		1099.9,207 1092.6,191.8 1091.2,191 1098.7,177 1093.9,174.4 1137.5,93.3 1136.3,92.7 1132.7,93.8 1090.3,172.5 1084.5,169.4 
		1077,183.4 1075.5,182.6 1058.9,184.9 1056.1,184.9 1055.9,185.3 1053.1,185.7 953.4,371.1 941,364.5 935.6,374.4 965.6,390.5 
		956.6,407.2 941.1,398.9 936.4,407.5 959.1,419.7 981.8,431.9 986.5,423.3 970.9,414.9 	"/>
	<path fill="#E6E6E6" d="M1129.1,299.9v20.2h-44.9v112h178.3v-112h-44.9v-20.2c0-3.3-3.9-8.2-8.8-8.2h-70.9
		C1133,291.7,1129.1,296.5,1129.1,299.9z M1146.7,299.8h53.1c4.8,0,8.8,2.7,8.8,6.1v14.2H1138v-14.2
		C1138,302.5,1141.9,299.8,1146.7,299.8z"/>
	<g>
		
			<rect x="935.2" y="386.4" transform="matrix(0.4736 -0.8808 0.8808 0.4736 143.215 1038.1906)" fill="#A6A8AB" width="9.8" height="25.8"/>
		
			<rect x="949.9" y="406.6" transform="matrix(0.8808 0.4734 -0.4734 0.8808 309.5367 -406.7659)" fill="#A6A8AB" width="25.8" height="9.8"/>
		<polygon fill="#CCCCCC" points="1127.5,83.3 1126.3,82.7 1122.7,83.8 1068.6,184.4 1072.1,186.3 		"/>
		<polygon fill="#29A9E0" points="1080.9,183.5 1073,179.2 1065.1,175 1044.1,178.6 942.5,367.5 965.2,379.7 965.6,379 988.3,391.2 
			1089.5,203 		"/>
		
			<rect x="984.7" y="295.2" transform="matrix(0.8808 0.4735 -0.4735 0.8808 262.0444 -441.6539)" fill="#A6A8AB" width="47" height="9"/>
		
			<rect x="906.4" y="333.9" transform="matrix(0.4735 -0.8808 0.8808 0.4735 219.9913 1043.8672)" fill="#A6A8AB" width="153.4" height="8.1"/>
		
			<rect x="986.2" y="265" transform="matrix(0.8807 0.4736 -0.4736 0.8807 279.9542 -428.2186)" fill="#A6A8AB" width="8.1" height="153.4"/>
		<polygon fill="#E20707" points="1080.9,183.5 1073,179.2 1065.1,175 1046.1,174.9 987.7,283.5 1033.1,307.9 1091.5,199.3 		"/>
		<polygon fill="#050438" points="1081.6,163.2 1074.5,159.4 1066.3,174.7 1073.4,178.5 1080.5,182.4 1088.7,167 		"/>
		<path fill="#2FC0FF" d="M1082.6,181.8l-8.6-4.6l-8.6-4.6l-22.4,3L940.9,365.8l24.7,13.3l24.7,13.3l102.2-190.1L1082.6,181.8z
			 M988.5,386.2l-20.7-11.1L947,363.9l99-184.1l18.7-2.5l7.3,3.9l7.3,3.9l8.2,17L988.5,386.2z"/>
		
			<rect x="941.2" y="348.3" transform="matrix(0.4735 -0.8808 0.8808 0.4735 173.1871 1028.4851)" fill="#050438" width="11.2" height="42.1"/>
		
			<rect x="962.9" y="383.7" transform="matrix(0.8808 0.4735 -0.4735 0.8808 301.6353 -419.4972)" fill="#050438" width="42.2" height="11.2"/>
		<g>
			
				<rect x="1036.9" y="196.6" transform="matrix(0.8807 0.4736 -0.4736 0.8807 218.4814 -470.7246)" fill="#050438" width="14.1" height="3.8"/>
			
				<rect x="1027.4" y="213.4" transform="matrix(0.8808 0.4735 -0.4735 0.8808 224.9149 -462.7775)" fill="#050438" width="8" height="3.8"/>
			
				<rect x="1017.3" y="233" transform="matrix(0.8808 0.4735 -0.4735 0.8808 233.3022 -456.9739)" fill="#050438" width="14.1" height="3.8"/>
			
				<rect x="1007.9" y="249.6" transform="matrix(0.8809 0.4733 -0.4733 0.8809 239.5135 -448.7924)" fill="#050438" width="7" height="3.8"/>
			
				<rect x="997.7" y="269.5" transform="matrix(0.8808 0.4734 -0.4734 0.8808 248.2014 -443.3258)" fill="#050438" width="14.1" height="3.8"/>
			
				<rect x="988.3" y="286.3" transform="matrix(0.8807 0.4736 -0.4736 0.8807 254.8456 -435.6056)" fill="#050438" width="8" height="3.8"/>
			
				<rect x="978.1" y="305.9" transform="matrix(0.8808 0.4735 -0.4735 0.8808 263.1753 -429.7531)" fill="#050438" width="14.1" height="3.8"/>
			
				<rect x="968.7" y="322.5" transform="matrix(0.881 0.4732 -0.4732 0.881 269.2189 -421.4268)" fill="#050438" width="7" height="3.8"/>
			
				<rect x="958.5" y="342.4" transform="matrix(0.8808 0.4735 -0.4735 0.8808 278.0716 -416.1046)" fill="#050438" width="14.1" height="3.8"/>
		</g>
	</g>
	<g>
		<g>
			<path fill="#221F1F" d="M1198.7,281.7h-70.9c-4.8,0-8.8,4.9-8.8,8.2v35.5c0,3.4,3.9,6.1,8.8,6.1h70.9c4.8,0,8.8-2.7,8.8-6.1
				v-35.5C1207.5,286.5,1203.6,281.7,1198.7,281.7z M1198.6,319.4c0,3.3-3.9,6.1-8.8,6.1h-53.1c-4.8,0-8.8-2.7-8.8-6.1v-23.5
				c0-3.3,3.9-6.1,8.8-6.1h53.1c4.8,0,8.8,2.7,8.8,6.1V319.4z"/>
			<g>
				<rect x="1074.1" y="310.1" fill="#F0F1F1" width="178.3" height="112"/>
			</g>
		</g>
		<g>
			<circle fill="#E20707" cx="1163.3" cy="365.6" r="38.3"/>
			<g>
				<rect x="1155.4" y="343.1" fill="#FFFFFF" width="15.8" height="44.8"/>
				<rect x="1140.9" y="357.6" fill="#FFFFFF" width="44.9" height="15.8"/>
			</g>
		</g>
	</g>
</g>
<g>
	<path fill="#E6E6E6" d="M913.4,779.4c-32-30.2-64.3-7-76.7,4.4c-7.4,6.8-12.9,15.4-17.9,24.1c-8.6-22.9-15.3-56.9-16.4-107.1
		c20.7-2.7,36.6-20.4,36.6-41.9c0-23.3-18.9-42.2-42.2-42.2c-23.3,0-42.2,18.9-42.2,42.2c0,22.9,18.2,41.5,40.9,42.2
		c1.2,54.4,8.8,90.7,18.9,114.8c-12.3,22.6-24,43.9-59.3,44.2c-0.1,0-0.3,0-0.4,0c-30,0-51.2-30.1-56.9-39.3
		c34.5-19.2,44.7-69,25.7-114.5l-0.7,0.3c-8.3-29.7-17.2-66.4-27.5-91.1c-5.7-13.1-11-23.1-19.5-27.3c-11.8-5.1-26.5,0-37.9,4.6
		c-1.8,0.7-3.5,1.5-5,2.2c-2.2,0-4.6,0.6-6.9,1.8c-5.8,3-8.8,8.5-6.9,12.3c2,3.8,8.2,4.6,14,1.6c4.2-2.1,6.9-5.6,7.4-8.9
		c0.3-0.1,0.7-0.3,1-0.4c10.5-4.6,24.3-7.9,30.3-4.7c3.7,1.4,9.7,9.9,14.8,22.4c10,23.8,19.1,61,27.5,91.1l-1.9,0.8l0,0
		c9.1,21.7,10.6,44.1,5.9,62.5c-4.7,18.4-15.4,32.4-30.6,38.8c-15.2,6.4-32.7,4.2-49.1-5.3c-16.4-9.5-31.3-26.3-40.4-48l-1.7,0.7
		c-15.6-27.1-35.8-59.6-45.7-83.5c-5.4-12.4-7.3-22.6-5.7-26.3c1.9-6.4,13.9-14,24.6-18.3c0.3-0.1,0.7-0.3,1-0.4
		c2.6,1.9,7,2.4,11.5,0.9c6.1-2,10-7,8.7-11.1c-1.4-4.1-7.5-5.8-13.6-3.7c-2.5,0.8-4.6,2.1-6.1,3.6c-1.6,0.6-3.3,1.3-5.1,2
		c-11.3,5-25.2,11.8-29.8,23.8c-2.9,9,0.5,19.8,5.9,33.1c10.4,24.7,30.2,56.8,45.7,83.5l-0.8,0.4c20,47.5,65.7,75.6,104.8,60.2
		c5.7,9.4,28.6,43.2,63.2,43.2c0.2,0,0.3,0,0.5,0c36.7-0.3,50.7-21.4,62.8-43.3c12.4,25,27.4,34.2,39,37.4c25.1,6.9,49.6-9.9,61-30
		C928.7,812,927,792.2,913.4,779.4z M911.9,827.8c-10,17.8-31.5,32.7-53.1,26.8c-9.1-2.5-24.3-10.9-36.6-38.4
		c5.6-10.3,11.2-19.9,19.3-27.2c13.6-12.5,40.5-29.8,67.2-4.5C920,795.1,921.2,811.3,911.9,827.8z"/>
	<g>
		<g>
			<g>
				<g>
					<g>
						<path fill="#E6E6E7" d="M665.8,578.1c8.4,4.2,13.8,14.2,19.5,27.3l0,0c10.9,26.1,20.3,65.7,29,96.2l0,0l-9,2.5
							c-8.7-30.8-18.2-70.3-28.6-95.1l0,0c-5.1-12.5-11.1-21-14.8-22.4l0,0c-5.9-3.2-19.8,0.1-30.3,4.7l0,0
							c-8.6,3.6-15.2,7.5-15.2,7.5l0,0l-4.8-8.1c0.1-0.1,7.1-4.2,16.3-8.1l0,0C639.3,578.1,653.9,573,665.8,578.1L665.8,578.1z"/>
					</g>
				</g>
				<g>
					<g>
						<path fill="#221F1F" d="M609.1,599.1c-2-3.8,1.1-9.4,6.9-12.3c5.8-2.9,12-2.2,14,1.6c2,3.8-1.1,9.4-6.9,12.3
							C617.4,603.6,611.1,602.9,609.1,599.1z"/>
					</g>
				</g>
			</g>
			<g>
				<g>
					<g>
						<path fill="#E6E6E7" d="M573.1,606.9l2.4,9.1c0,0-7.3,1.9-15.9,5.6l0,0c-10.7,4.3-22.7,11.9-24.6,18.3l0,0
							c-1.6,3.7,0.3,13.9,5.7,26.3l0,0c10.4,24.9,32,59.3,47.8,87.1l0,0l0,0l-8.2,4.7c-15.7-27.6-37.3-62-48.3-88.1l0,0
							c-5.4-13.2-8.7-24.1-5.9-33.1l0,0c4.7-12,18.6-18.9,29.8-23.8l0,0C565.2,609,572.9,607,573.1,606.9L573.1,606.9z"/>
					</g>
				</g>
				<g>
					<g>
						<path fill="#221F1F" d="M580.7,611c-1.4-4.1-7.5-5.8-13.6-3.7c-6.1,2.1-10,7-8.7,11.1c1.4,4.1,7.5,5.8,13.6,3.7
							C578.2,620.1,582.1,615.1,580.7,611z"/>
					</g>
				</g>
			</g>
			<g>
				<g>
					<path fill="#221F1F" d="M588,748.9c9.1,21.7,24,38.5,40.4,48l0,0c16.4,9.5,33.9,11.7,49.1,5.3l0,0
						c15.2-6.4,25.9-20.4,30.6-38.8l0,0c4.7-18.3,3.2-40.7-5.9-62.5l0,0l0,0l11.3-4.7c20,47.9,7.7,100.5-31.3,117.3l0,0
						c-39.2,16.1-85.4-12.1-105.5-59.9l0,0L588,748.9L588,748.9z"/>
				</g>
			</g>
		</g>
		<g>
			<path fill="#221F1F" d="M744.7,857c-39.3,0-63.6-43.7-64.6-45.6l6.1-3.3c0.2,0.4,23.3,42,58.5,42c0.1,0,0.3,0,0.4,0
				c35.2-0.3,46.9-21.6,59.3-44.2c-12.1-28.9-20.6-75.4-18.8-149.8l6.9,0.2c-1.7,69.7,5.8,113.7,16.3,141.6
				c5-8.8,10.5-17.3,17.9-24.1c12.4-11.4,44.7-34.6,76.7-4.4c13.5,12.8,15.3,32.6,4.5,51.8c-11.3,20.1-35.9,36.9-61,30
				c-11.5-3.2-26.6-12.4-39-37.4c-12.1,21.8-26,42.9-62.8,43.3C745,857,744.9,857,744.7,857z M812.2,806.1
				c12.3,27.5,27.4,35.9,36.6,38.4c21.6,6,43.1-9,53.1-26.8c9.3-16.5,8.1-32.7-3.2-43.4c-26.8-25.3-53.6-8-67.2,4.5
				C823.4,786.3,817.8,795.8,812.2,806.1z"/>
		</g>
		<g>
			<g>
				<path fill="#A6A8AB" d="M829.1,649c0,23.3-18.9,42.2-42.2,42.2c-23.3,0-42.2-18.9-42.2-42.2c0-23.3,18.9-42.2,42.2-42.2
					C810.2,606.7,829.1,625.6,829.1,649z"/>
			</g>
			<g>
				<path fill="#E6E6E7" d="M807.2,649c0,11.2-9.1,20.3-20.3,20.3c-11.2,0-20.3-9.1-20.3-20.3c0-11.2,9.1-20.3,20.3-20.3
					C798.1,628.6,807.2,637.7,807.2,649z"/>
			</g>
		</g>
	</g>
</g>
<g>
	<path fill="#E6E6E6" d="M1266.4,616h-11.7c-2.2,0-4-1.8-4-4v-12.7c0-2.2-1.8-4-4-4H1166c-2.2,0-4,1.8-4,4V612c0,2.2-1.8,4-4,4
		h-11.8c-2.2,0-4,1.8-4,4v44.4c0,2.2,1.8,4,4,4h8.5v44h-3.8H1124h-4.9c-2.1-1.9-3.4-4.6-3.4-7.7v-4.9h3.9c5.7,0,10.3-4.6,10.3-10.3
		v-23.1c0-5.7-4.6-10.3-10.3-10.3h-95.4c-5.7,0-10.3,4.6-10.3,10.3v23.1c0,5.7,4.6,10.3,10.3,10.3h4.5v4.9c0,5.7-4.6,10.3-10.3,10.3
		h-3.6v0.2c-5.6,0.1-10.1,4.7-10.1,10.3V877c0,5.7,4.6,10.3,10.3,10.3h113.9c2,0,3.9-0.6,5.5-1.6h20.4v1.2h103.1v-61.7V723.5v-55
		h8.5c2.2,0,4-1.8,4-4V620C1270.4,617.8,1268.6,616,1266.4,616z"/>
	<g>
		<path fill="#F0F1F1" d="M1119.7,705.4v-0.2h-3.6c-5.7,0-10.3-4.6-10.3-10.3v-24.2h-34.7c-3.8,0-7.1,2-8.9,5c-1.8-3-5.1-5-8.9-5
			h-34.7v24.2c0,5.7-4.6,10.3-10.3,10.3h-3.6v0.2c-5.6,0.1-10.1,4.7-10.1,10.3V867c0,5.7,4.6,10.3,10.3,10.3h113.9
			c5.7,0,10.3-4.6,10.3-10.3V715.7C1129.2,710.2,1125,705.8,1119.7,705.4z"/>
		<path fill="#D0D2D3" d="M1119.9,679.6c0,5.7-4.6,10.3-10.3,10.3h-95.4c-5.7,0-10.3-4.6-10.3-10.3v-23.1c0-5.7,4.6-10.3,10.3-10.3
			h95.4c5.7,0,10.3,4.6,10.3,10.3V679.6z"/>
		<g>
			<g>
				<path fill="#929597" d="M1011.1,683.6c-0.6,0-1-0.5-1-1v-29c0-0.6,0.5-1,1-1c0.6,0,1,0.5,1,1v29
					C1012.1,683.1,1011.7,683.6,1011.1,683.6z"/>
			</g>
			<g>
				<path fill="#929597" d="M1028,683.6c-0.6,0-1-0.5-1-1v-29c0-0.6,0.5-1,1-1c0.6,0,1,0.5,1,1v29
					C1029.1,683.1,1028.6,683.6,1028,683.6z"/>
			</g>
			<g>
				<path fill="#929597" d="M1045,683.6c-0.6,0-1-0.5-1-1v-29c0-0.6,0.5-1,1-1s1,0.5,1,1v29C1046,683.1,1045.5,683.6,1045,683.6z"/>
			</g>
			<g>
				<path fill="#929597" d="M1061.9,683.6c-0.6,0-1-0.5-1-1v-29c0-0.6,0.5-1,1-1s1,0.5,1,1v29
					C1062.9,683.1,1062.5,683.6,1061.9,683.6z"/>
			</g>
			<g>
				<path fill="#929597" d="M1078.8,683.6c-0.6,0-1-0.5-1-1v-29c0-0.6,0.5-1,1-1c0.6,0,1,0.5,1,1v29
					C1079.9,683.1,1079.4,683.6,1078.8,683.6z"/>
			</g>
			<g>
				<path fill="#929597" d="M1095.8,683.6c-0.6,0-1-0.5-1-1v-29c0-0.6,0.5-1,1-1s1,0.5,1,1v29
					C1096.8,683.1,1096.3,683.6,1095.8,683.6z"/>
			</g>
			<g>
				<path fill="#929597" d="M1112.7,683.6c-0.6,0-1-0.5-1-1v-29c0-0.6,0.5-1,1-1s1,0.5,1,1v29
					C1113.7,683.1,1113.3,683.6,1112.7,683.6z"/>
			</g>
		</g>
		<path fill="#FFFFFF" d="M1017,820.5c0,3.1-2.5,5.6-5.6,5.6h-0.7c-3.1,0-5.6-2.5-5.6-5.6V720.4c0-3.1,2.5-5.6,5.6-5.6h0.7
			c3.1,0,5.6,2.5,5.6,5.6V820.5z"/>
		<g>
			<circle fill="#E20707" cx="1061.9" cy="790.4" r="38.8"/>
			<g>
				<rect x="1053.9" y="767.7" fill="#FFFFFF" width="16" height="45.4"/>
				<rect x="1039.2" y="782.4" fill="#FFFFFF" width="45.4" height="16"/>
			</g>
		</g>
	</g>
	<g>
		<rect x="1144.7" y="658.5" fill="#E69D14" width="103.1" height="218.5"/>
		<rect x="1187.3" y="713.5" fill="#CDDDDA" width="60.5" height="101.8"/>
		<path fill="#A87C4F" d="M1240.6,602v-12.7c0-2.2-1.8-4-4-4H1156c-2.2,0-4,1.8-4,4V602c0,2.2-1.8,4-4,4h-11.8c-2.2,0-4,1.8-4,4
			v44.4c0,2.2,1.8,4,4,4h120.1c2.2,0,4-1.8,4-4V610c0-2.2-1.8-4-4-4h-11.7C1242.4,606,1240.6,604.2,1240.6,602z"/>
		<path fill="#EDB14F" d="M1163.3,843.4c0,2.3-1.9,4.1-4.1,4.1h-0.5c-2.3,0-4.1-1.9-4.1-4.1V692c0-2.3,1.9-4.1,4.1-4.1h0.5
			c2.3,0,4.1,1.9,4.1,4.1V843.4z"/>
	</g>
	<g>
		<g>
			<path fill="#A97C4F" d="M1194.6,702.5h-101.9c-4.8,0-8.8,3.9-8.8,8.8v36.9h119.4v-36.9C1203.4,706.5,1199.5,702.5,1194.6,702.5z"
				/>
			<path fill="#603814" d="M1203,748.2h-0.3h-118.1h-0.3c-6.6,0-12,5.4-12,12v103.7c0,6.6,5.4,12,12,12H1203c6.6,0,12-5.4,12-12
				V760.2C1215,753.6,1209.6,748.2,1203,748.2z"/>
			<rect x="1124.6" y="782.3" fill="#CDDDDA" width="90.3" height="61.7"/>
			<g>
				<rect x="1108.4" y="702.5" fill="#8E6643" width="5.6" height="45.7"/>
			</g>
			<g>
				<rect x="1140.9" y="702.5" fill="#8E6643" width="5.6" height="45.7"/>
			</g>
			<g>
				<rect x="1170.1" y="702.5" fill="#8E6643" width="5.6" height="45.7"/>
			</g>
		</g>
		<path fill="#77471F" d="M1092.7,856.5c0,2.3-1.9,4.1-4.1,4.1h-0.5c-2.3,0-4.1-1.9-4.1-4.1v-91.8c0-2.3,1.9-4.1,4.1-4.1h0.5
			c2.3,0,4.1,1.8,4.1,4.1V856.5z"/>
	</g>
</g>
</svg>
